<?xml version="1.0" encoding="utf-8"?>
<svg version="1.1" xmlns="http://www.w3.org/2000/svg" xmlns:xlink="http://www.w3.org/1999/xlink" x="0px" y="0px"
	 viewBox="0 0 80 35" style="enable-background:new 0 0 80 35;" xml:space="preserve">
<style type="text/css">
	.st0{fill: #E40012;}
</style>
<g>
	<g>
		<path class="st0" d="M74.5,19.2c0.4-0.2,0.6-0.3,0.6-0.5s-0.2-0.3-0.6-0.3L72,18.1l0.1,12.1l2.4,0.1V19.2z"/>
		<path class="st0" d="M71.4,24.6L71.4,24.6l-1.8-1.9l-1.3,1.5v-5.3h2.8l0,0c0.3,0,0.8,0.1,0-0.8l0,0l-1.7-1.6l-1.2,1.3h-6l0.2,1.2
			H65v5.5h-3.1l0.2,1.1H65v8.5l3.2-0.6l0.1-7.9h3.1C71.7,25.4,72.3,25.5,71.4,24.6z"/>
	</g>
	<path class="st0" d="M78.6,34c0.5-0.4,0.7-0.9,0.7-1.6v-15c0.5-0.3,0.7-0.5,0.7-0.7s-0.2-0.3-0.7-0.4L76.1,16v15.4
		c0,0,0.2,2.3-0.6,3.2L78.6,34z"/>
</g>
<g>
	<path class="st0" d="M55.4,31.4V28c0.4-0.2,0.6-0.3,0.6-0.5c0-0.1-0.1-0.2-0.3-0.4l-2.1-1.4l-1.2,1h-1.7L48.1,26v7l2.8-0.4V31h1.6
		v0.8L55.4,31.4z M50.9,30.1v-2.4h1.6v2.4H50.9z"/>
	<path class="st0" d="M60.4,17.4l-2.7-1.7l-1.2,1.5H47l-3.1-0.5v8.6c-0.1,1.4-0.5,6.2-2.7,8.9c0,0,5.4-0.8,5.8-8.9l0,0v-0.2
		c0-0.1,0-0.2,0-0.3V24l0.2,0.6h9c0.2,0,0.7-0.1,0.2-0.6l0,0l-0.1-0.1c-0.1-0.1,0-0.1-0.1-0.1l-1.3-1.4l-1,1.3h-0.7v-1.9H56l0,0
		c0.2,0,0.9,0.1,0-0.9l0,0l-1.3-1.3l-1,1.1H53v-0.8c0.4-0.2,0.6-0.3,0.6-0.5S53.4,19.1,53,19l-2.9-0.2v1.9h-2.6l0.2,1H50v1.9h-3.1
		v-5.4h9.6l0,0v13.2c0,0,0.2,2.3-0.6,3.2L59,34c0.5-0.4,0.7-0.9,0.7-1.6v-14l0.1-0.1c0.5-0.3,0.8-0.5,0.8-0.6
		C60.7,17.7,60.6,17.5,60.4,17.4z"/>
</g>
<path class="st0" d="M23,5.1c0.4-0.5,0.7-1,1.1-1.5c0,0,1,0.1,1.2-0.7c0,0,0.1-0.5-0.9-0.8l-5.9-2c0,0-5.9,13.1-18.5,20.5
	c0,0,11.9-2.3,21.2-13.2c0.5,0.6,1.9,2.3,4.1,4.3c5.1,6,12.8,8.4,12.8,8.4c0.6-1.2,5.9-6.6,5.9-6.6C31.7,12.4,24.2,6.1,23,5.1z"/>
<path class="st0" d="M28.6,17l-3.4-3c0,0-0.6-0.6-1,0.1l-1.7,2.6H12l0.3,1.5h15.8C28.1,18.1,29.5,18.2,28.6,17z"/>
<path class="st0" d="M33.4,22.5l-4.2-2l-2.1,1.4H7.5l0.3,1.5l18.6-0.1l-6,8.6c-1.3,1.6-1,1.3-1.7,1.8l5.7,0.9
	c1.4,0.1,2.5-1.5,2.5-1.5l5.9-8.5c0.7-0.2,1.1-0.7,1.1-0.7C34.7,23.2,33.4,22.5,33.4,22.5z"/>
</svg>
