<?xml version="1.0" encoding="utf-8"?>
<!-- Generator: $$$/GeneralStr/196=Adobe Illustrator 27.6.0, SVG Export Plug-In . SVG Version: 6.00 Build 0)  -->
<svg version="1.1" id="Capa_1" xmlns="http://www.w3.org/2000/svg" xmlns:xlink="http://www.w3.org/1999/xlink" x="0px" y="0px"
	 viewBox="0 0 50 50" style="enable-background:new 0 0 50 50;" xml:space="preserve">
<path d="M50,21C49.4,10.4,38.4,2,25,2C11.2,2,0,10.9,0,21.9C0,32,9.5,40.3,21.7,41.6c0.7,0.1,1.3,0.8,1.2,1.5l-0.5,4.7
	c-0.1,1.1,1,1.8,1.9,1.4c10.3-5,16.5-10.1,20.2-14.6c0.7-0.8,2.9-3.9,3.3-4.7c0.9-1.7,1.6-3.6,1.9-5.5c0.1-0.6,0.2-1.1,0.2-1.5
	C50,22.2,50,21.3,50,21z M15.1,28.5H10c-0.7,0-1.3-0.6-1.3-1.3v-9.7c0-0.7,0.6-1.3,1.3-1.3c0.7,0,1.3,0.6,1.3,1.3v8.4h3.8
	c0.7,0,1.3,0.6,1.3,1.3C16.4,27.9,15.8,28.5,15.1,28.5z M20.1,27.5c0,0.6-0.4,1-1,1h-0.6c-0.6,0-1-0.4-1-1V17.3c0-0.6,0.4-1,1-1h0.6
	c0.6,0,1,0.4,1,1V27.5z M32,27.1c0,0.7-0.6,1.3-1.3,1.3c-0.3,0-0.6-0.1-0.9-0.3c-0.1-0.1-5.3-6.8-5.3-6.8v5.9c0,0.7-0.6,1.3-1.3,1.3
	c-0.7,0-1.3-0.6-1.3-1.3v-9.6c0-0.7,0.5-1.3,1.2-1.3c0.4,0,0.8,0.2,1,0.4c0.1,0.1,5.2,6.7,5.2,6.7v-5.9c0-0.7,0.6-1.3,1.3-1.3
	c0.7,0,1.3,0.6,1.3,1.3V27.1z M40.3,25.9c0.7,0,1.3,0.6,1.3,1.3c0,0.7-0.6,1.3-1.3,1.3h-5.1c-0.7,0-1.3-0.6-1.3-1.3v-9.7
	c0-0.7,0.6-1.3,1.3-1.3h5.1c0.7,0,1.3,0.6,1.3,1.3c0,0.7-0.6,1.3-1.3,1.3h-3.8v2.3h3.8c0.7,0,1.3,0.6,1.3,1.3c0,0.7-0.6,1.3-1.3,1.3
	h-3.8v2.3H40.3z" fill="#00C200"/>
</svg>
